REM DIRINDEX 1\5,1\2\6,1\2\7,1\3\8,1\3\9,1\4\10,1\4\11,1\4\12
REM DIRNAME folder01,folder02,folder03,folder04,folder05,folder06,folder07,folder08,folder09,folder10,folder11,folder12
TITLE ""
FILE "EJE_DB3000_5th_2A_52.mp3" MP3
  TRACK 01 AUDIO
    TITLE "0:"
    INDEX 01 00:00:00
  TRACK 02 AUDIO
    TITLE "10:cjc026_08256"
    INDEX 01 00:00:05
  TRACK 03 AUDIO
    TITLE "0:"
    INDEX 01 00:01:21
  TRACK 04 AUDIO
    TITLE "11:cjc026_08257"
    INDEX 01 00:01:48
  TRACK 05 AUDIO
    TITLE "0:"
    INDEX 01 00:02:40
  TRACK 06 AUDIO
    TITLE "12:cjc026_08258"
    INDEX 01 00:02:65
  TRACK 07 AUDIO
    TITLE "0:"
    INDEX 01 00:04:07
  TRACK 08 AUDIO
    TITLE "10:cjc026_08259"
    INDEX 01 00:04:33
  TRACK 09 AUDIO
    TITLE "0:"
    INDEX 01 00:05:34
  TRACK 10 AUDIO
    TITLE "11:cjc026_08260"
    INDEX 01 00:05:59
  TRACK 11 AUDIO
    TITLE "0:"
    INDEX 01 00:06:59
  TRACK 12 AUDIO
    TITLE "12:cjc026_08261"
    INDEX 01 00:07:09
  TRACK 13 AUDIO
    TITLE "0:"
    INDEX 01 00:08:11
  TRACK 14 AUDIO
    TITLE "10:cjc026_08262"
    INDEX 01 00:08:36
  TRACK 15 AUDIO
    TITLE "0:"
    INDEX 01 00:09:42
  TRACK 16 AUDIO
    TITLE "11:cjc026_08263"
    INDEX 01 00:09:67
  TRACK 17 AUDIO
    TITLE "0:"
    INDEX 01 00:10:63
  TRACK 18 AUDIO
    TITLE "12:cjc026_08264"
    INDEX 01 00:11:13
  TRACK 19 AUDIO
    TITLE "0:"
    INDEX 01 00:12:18
  TRACK 20 AUDIO
    TITLE "10:cjc026_08265"
    INDEX 01 00:12:44
  TRACK 21 AUDIO
    TITLE "0:"
    INDEX 01 00:13:47
  TRACK 22 AUDIO
    TITLE "11:cjc026_08266"
    INDEX 01 00:13:73
  TRACK 23 AUDIO
    TITLE "0:"
    INDEX 01 00:14:64
  TRACK 24 AUDIO
    TITLE "12:cjc026_08267"
    INDEX 01 00:15:15
  TRACK 25 AUDIO
    TITLE "0:"
    INDEX 01 00:16:18
  TRACK 26 AUDIO
    TITLE "10:cjc026_08268"
    INDEX 01 00:16:44
  TRACK 27 AUDIO
    TITLE "0:"
    INDEX 01 00:17:43
  TRACK 28 AUDIO
    TITLE "11:cjc026_08269"
    INDEX 01 00:17:69
  TRACK 29 AUDIO
    TITLE "0:"
    INDEX 01 00:18:74
  TRACK 30 AUDIO
    TITLE "12:cjc026_08270"
    INDEX 01 00:19:24
  TRACK 31 AUDIO
    TITLE "0:"
    INDEX 01 00:20:26
  TRACK 32 AUDIO
    TITLE "10:cjc026_08271"
    INDEX 01 00:20:51
  TRACK 33 AUDIO
    TITLE "0:"
    INDEX 01 00:21:57
  TRACK 34 AUDIO
    TITLE "11:cjc026_08272"
    INDEX 01 00:22:09
  TRACK 35 AUDIO
    TITLE "0:"
    INDEX 01 00:23:12
  TRACK 36 AUDIO
    TITLE "12:cjc026_08273"
    INDEX 01 00:23:38
  TRACK 37 AUDIO
    TITLE "0:"
    INDEX 01 00:24:43
  TRACK 38 AUDIO
    TITLE "10:cjc026_08274"
    INDEX 01 00:24:69
  TRACK 39 AUDIO
    TITLE "0:"
    INDEX 01 00:25:74
  TRACK 40 AUDIO
    TITLE "11:cjc026_08275"
    INDEX 01 00:26:24
  TRACK 41 AUDIO
    TITLE "0:"
    INDEX 01 00:27:18
  TRACK 42 AUDIO
    TITLE "12:cjc026_08276"
    INDEX 01 00:27:43
  TRACK 43 AUDIO
    TITLE "0:"
    INDEX 01 00:28:49
  TRACK 44 AUDIO
    TITLE "10:cjc026_08277"
    INDEX 01 00:28:74
  TRACK 45 AUDIO
    TITLE "0:"
    INDEX 01 00:29:66
  TRACK 46 AUDIO
    TITLE "11:cjc026_08278"
    INDEX 01 00:30:18
  TRACK 47 AUDIO
    TITLE "0:"
    INDEX 01 00:31:31
  TRACK 48 AUDIO
    TITLE "12:cjc026_08279"
    INDEX 01 00:31:57
  TRACK 49 AUDIO
    TITLE "0:"
    INDEX 01 00:32:50
  TRACK 50 AUDIO
    TITLE "10:cjc026_08280"
    INDEX 01 00:33:01
  TRACK 51 AUDIO
    TITLE "0:"
    INDEX 01 00:33:62
  TRACK 52 AUDIO
    TITLE "11:cjc026_08281"
    INDEX 01 00:34:16
  TRACK 53 AUDIO
    TITLE "0:"
    INDEX 01 00:35:19
  TRACK 54 AUDIO
    TITLE "12:cjc026_08282"
    INDEX 01 00:35:45
  TRACK 55 AUDIO
    TITLE "0:"
    INDEX 01 00:36:33
  TRACK 56 AUDIO
    TITLE "10:cjc026_08283"
    INDEX 01 00:36:58
  TRACK 57 AUDIO
    TITLE "0:"
    INDEX 01 00:37:61
  TRACK 58 AUDIO
    TITLE "11:cjc026_08284"
    INDEX 01 00:38:14
  TRACK 59 AUDIO
    TITLE "0:"
    INDEX 01 00:39:05
  TRACK 60 AUDIO
    TITLE "12:cjc026_08285"
    INDEX 01 00:39:31
  TRACK 61 AUDIO
    TITLE "0:"
    INDEX 01 00:40:34
  TRACK 62 AUDIO
    TITLE "10:cjc026_08286"
    INDEX 01 00:40:60
  TRACK 63 AUDIO
    TITLE "0:"
    INDEX 01 00:41:53
  TRACK 64 AUDIO
    TITLE "11:cjc026_08287"
    INDEX 01 00:42:06
  TRACK 65 AUDIO
    TITLE "0:"
    INDEX 01 00:43:17
  TRACK 66 AUDIO
    TITLE "12:cjc026_08288"
    INDEX 01 00:43:44
  TRACK 67 AUDIO
    TITLE "0:"
    INDEX 01 00:44:36
  TRACK 68 AUDIO
    TITLE "10:cjc026_08289"
    INDEX 01 00:44:63
  TRACK 69 AUDIO
    TITLE "0:"
    INDEX 01 00:45:63
  TRACK 70 AUDIO
    TITLE "11:cjc026_08290"
    INDEX 01 00:46:13
  TRACK 71 AUDIO
    TITLE "0:"
    INDEX 01 00:47:23
  TRACK 72 AUDIO
    TITLE "12:cjc026_08291"
    INDEX 01 00:47:48
  TRACK 73 AUDIO
    TITLE "0:"
    INDEX 01 00:48:46
